RBDS023runT35_grf
version=1
nRows=37
nColumns=19
inDegrees=no
endheader
time	ground_force_r_vx	ground_force_r_vy	ground_force_r_vz	ground_force_r_px	ground_force_r_py	ground_force_r_pz	ground_force_r_mx	ground_force_r_my	ground_force_r_mz	ground_force_l_vx	ground_force_l_vy	ground_force_l_vz	ground_force_l_px	ground_force_l_py	ground_force_l_pz	ground_force_l_mx	ground_force_l_my	ground_force_l_mz
      7.49900000	      0.00000000	      0.00000000	      0.00000000	      0.00000000	      0.00000000	      0.00000000	      0.00000000	      0.00000000	      0.00000000	   -215.60556686	   1330.52131705	     -0.19020358	      2.45563990	      0.00000000	      0.99313915	      0.00000000	     -3.61030508	     -0.00000000
      7.50000000	      0.00000000	      0.00000000	      0.00000000	      0.00000000	      0.00000000	      0.00000000	      0.00000000	      0.00000000	      0.00000000	   -219.27380308	   1345.59961369	      0.39598917	      2.45419907	      0.00000000	      0.99287259	      0.00000000	     -3.52293799	     -0.00000000
      7.50100000	      0.00000000	      0.00000000	      0.00000000	      0.00000000	      0.00000000	      0.00000000	      0.00000000	      0.00000000	      0.00000000	   -222.31728323	   1360.12032634	      1.08820778	      2.45263094	      0.00000000	      0.99259144	      0.00000000	     -3.40904128	     -0.00000000
      7.50200000	      0.00000000	      0.00000000	      0.00000000	      0.00000000	      0.00000000	      0.00000000	      0.00000000	      0.00000000	      0.00000000	   -225.36076338	   1374.64103899	      1.78042639	      2.45106280	      0.00000000	      0.99231030	      0.00000000	     -3.29514457	     -0.00000000
      7.50300000	      0.00000000	      0.00000000	      0.00000000	      0.00000000	      0.00000000	      0.00000000	      0.00000000	      0.00000000	      0.00000000	   -228.40424353	   1389.16175163	      2.47264501	      2.44949467	      0.00000000	      0.99202916	      0.00000000	     -3.18124786	     -0.00000000
      7.50400000	      0.00000000	      0.00000000	      0.00000000	      0.00000000	      0.00000000	      0.00000000	      0.00000000	      0.00000000	      0.00000000	   -230.97657319	   1403.32786203	      3.22765899	      2.44783396	      0.00000000	      0.99174239	      0.00000000	     -3.05140101	     -0.00000000
      7.50500000	      0.00000000	      0.00000000	      0.00000000	      0.00000000	      0.00000000	      0.00000000	      0.00000000	      0.00000000	      0.00000000	   -233.31332759	   1417.31667130	      4.01407066	      2.44612694	      0.00000000	      0.99145280	      0.00000000	     -2.91357908	     -0.00000000
      7.50600000	      0.00000000	      0.00000000	      0.00000000	      0.00000000	      0.00000000	      0.00000000	      0.00000000	      0.00000000	      0.00000000	   -235.65008199	   1431.30548057	      4.80048232	      2.44441993	      0.00000000	      0.99116321	      0.00000000	     -2.77575715	     -0.00000000
      7.50700000	      0.00000000	      0.00000000	      0.00000000	      0.00000000	      0.00000000	      0.00000000	      0.00000000	      0.00000000	      0.00000000	   -237.73109135	   1445.11941058	      5.61312088	      2.44266407	      0.00000000	      0.99087270	      0.00000000	     -2.63110672	     -0.00000000
      7.50800000	      0.00000000	      0.00000000	      0.00000000	      0.00000000	      0.00000000	      0.00000000	      0.00000000	      0.00000000	      0.00000000	   -239.30061064	   1458.58358207	      6.47821321	      2.44081050	      0.00000000	      0.99058035	      0.00000000	     -2.47279926	     -0.00000000
      7.50900000	      0.00000000	      0.00000000	      0.00000000	      0.00000000	      0.00000000	      0.00000000	      0.00000000	      0.00000000	      0.00000000	   -240.87012993	   1472.04775356	      7.34330555	      2.43895693	      0.00000000	      0.99028799	      0.00000000	     -2.31449181	      0.00000000
      7.51000000	      0.00000000	      0.00000000	      0.00000000	      0.00000000	      0.00000000	      0.00000000	      0.00000000	      0.00000000	      0.00000000	   -242.43964922	   1485.51192505	      8.20839788	      2.43710337	      0.00000000	      0.98999564	      0.00000000	     -2.15618435	      0.00000000
      7.51100000	      0.00000000	      0.00000000	      0.00000000	      0.00000000	      0.00000000	      0.00000000	      0.00000000	      0.00000000	      0.00000000	   -243.20407769	   1498.43922867	      9.13371979	      2.43509968	      0.00000000	      0.98970562	      0.00000000	     -1.98149852	      0.00000000
      7.51200000	      0.00000000	      0.00000000	      0.00000000	      0.00000000	      0.00000000	      0.00000000	      0.00000000	      0.00000000	      0.00000000	   -243.96850615	   1511.36653229	     10.05904169	      2.43309600	      0.00000000	      0.98941559	      0.00000000	     -1.80681269	      0.00000000
      7.51300000	      0.00000000	      0.00000000	      0.00000000	      0.00000000	      0.00000000	      0.00000000	      0.00000000	      0.00000000	      0.00000000	   -244.73293462	   1524.29383591	     10.98436360	      2.43109231	      0.00000000	      0.98912557	      0.00000000	     -1.63212685	      0.00000000
      7.51400000	      0.00000000	      0.00000000	      0.00000000	      0.00000000	      0.00000000	      0.00000000	      0.00000000	      0.00000000	      0.00000000	   -244.95056519	   1536.84225924	     11.93618917	      2.42898890	      0.00000000	      0.98884004	      0.00000000	     -1.44956514	      0.00000000
      7.51500000	      0.00000000	      0.00000000	      0.00000000	      0.00000000	      0.00000000	      0.00000000	      0.00000000	      0.00000000	      0.00000000	   -244.89479680	   1549.20124241	     12.90126657	      2.42683563	      0.00000000	      0.98855676	      0.00000000	     -1.26306549	      0.00000000
      7.51600000	      0.00000000	      0.00000000	      0.00000000	      0.00000000	      0.00000000	      0.00000000	      0.00000000	      0.00000000	      0.00000000	   -244.83902842	   1561.56022559	     13.86634398	      2.42468235	      0.00000000	      0.98827348	      0.00000000	     -1.07656584	      0.00000000
      7.51700000	      0.00000000	      0.00000000	      0.00000000	      0.00000000	      0.00000000	      0.00000000	      0.00000000	      0.00000000	      0.00000000	   -244.51209712	   1573.71337816	     14.83750466	      2.42248069	      0.00000000	      0.98799368	      0.00000000	     -0.88772421	      0.00000000
      7.51800000	      0.00000000	      0.00000000	      0.00000000	      0.00000000	      0.00000000	      0.00000000	      0.00000000	      0.00000000	      0.00000000	   -243.64283999	   1585.45486951	     15.82083192	      2.42018224	      0.00000000	      0.98772082	      0.00000000	     -0.69419865	      0.00000000
      7.51900000	      0.00000000	      0.00000000	      0.00000000	      0.00000000	      0.00000000	      0.00000000	      0.00000000	      0.00000000	      0.00000000	   -242.77358287	   1597.19636086	     16.80415917	      2.41788379	      0.00000000	      0.98744797	      0.00000000	     -0.50067308	      0.00000000
      7.52000000	      0.00000000	      0.00000000	      0.00000000	      0.00000000	      0.00000000	      0.00000000	      0.00000000	      0.00000000	      0.00000000	   -241.90432574	   1608.93785220	     17.78748642	      2.41558534	      0.00000000	      0.98717511	      0.00000000	     -0.30714752	      0.00000000
      7.52100000	      0.00000000	      0.00000000	      0.00000000	      0.00000000	      0.00000000	      0.00000000	      0.00000000	      0.00000000	      0.00000000	   -240.24824841	   1619.99748971	     18.76749485	      2.41314962	      0.00000000	      0.98691558	      0.00000000	     -0.11136695	      0.00000000
      7.52200000	      0.00000000	      0.00000000	      0.00000000	      0.00000000	      0.00000000	      0.00000000	      0.00000000	      0.00000000	      0.00000000	   -238.59217108	   1631.05712721	     19.74750328	      2.41071390	      0.00000000	      0.98665606	      0.00000000	      0.08441362	      0.00000000
      7.52300000	      0.00000000	      0.00000000	      0.00000000	      0.00000000	      0.00000000	      0.00000000	      0.00000000	      0.00000000	      0.00000000	   -236.93609375	   1642.11676472	     20.72751171	      2.40827819	      0.00000000	      0.98639653	      0.00000000	      0.28019419	      0.00000000
      7.52400000	      0.00000000	      0.00000000	      0.00000000	      0.00000000	      0.00000000	      0.00000000	      0.00000000	      0.00000000	      0.00000000	   -234.78481224	   1652.67099517	     21.69145996	      2.40575822	      0.00000000	      0.98614731	      0.00000000	      0.47446135	      0.00000000
      7.52500000	      0.00000000	      0.00000000	      0.00000000	      0.00000000	      0.00000000	      0.00000000	      0.00000000	      0.00000000	      0.00000000	   -232.38592864	   1662.97252209	     22.64737812	      2.40319612	      0.00000000	      0.98590325	      0.00000000	      0.66797180	      0.00000000
      7.52600000	      0.00000000	      0.00000000	      0.00000000	      0.00000000	      0.00000000	      0.00000000	      0.00000000	      0.00000000	      0.00000000	   -229.98704504	   1673.27404901	     23.60329628	      2.40063402	      0.00000000	      0.98565920	      0.00000000	      0.86148225	      0.00000000
      7.52700000	      0.00000000	      0.00000000	      0.00000000	      0.00000000	      0.00000000	      0.00000000	      0.00000000	      0.00000000	      0.00000000	   -227.35995170	   1683.29475070	     24.54475580	      2.39803421	      0.00000000	      0.98542076	      0.00000000	      1.05287636	      0.00000000
      7.52800000	      0.00000000	      0.00000000	      0.00000000	      0.00000000	      0.00000000	      0.00000000	      0.00000000	      0.00000000	      0.00000000	   -224.27643887	   1692.75380193	     25.45729803	      2.39535897	      0.00000000	      0.98519358	      0.00000000	      1.24003778	      0.00000000
      7.52900000	      0.00000000	      0.00000000	      0.00000000	      0.00000000	      0.00000000	      0.00000000	      0.00000000	      0.00000000	      0.00000000	   -221.19292605	   1702.21285315	     26.36984026	      2.39268372	      0.00000000	      0.98496639	      0.00000000	      1.42719921	      0.00000000
      7.53000000	      0.00000000	      0.00000000	      0.00000000	      0.00000000	      0.00000000	      0.00000000	      0.00000000	      0.00000000	      0.00000000	   -218.10941323	   1711.67190437	     27.28238248	      2.39000848	      0.00000000	      0.98473921	      0.00000000	      1.61436063	      0.00000000
      7.53100000	      0.00000000	      0.00000000	      0.00000000	      0.00000000	      0.00000000	      0.00000000	      0.00000000	      0.00000000	      0.00000000	   -214.41008110	   1720.20000961	     28.13423051	      2.38723499	      0.00000000	      0.98452963	      0.00000000	      1.79169948	      0.00000000
      7.53200000	      0.00000000	      0.00000000	      0.00000000	      0.00000000	      0.00000000	      0.00000000	      0.00000000	      0.00000000	      0.00000000	   -210.71074897	   1728.72811485	     28.98607853	      2.38446151	      0.00000000	      0.98432005	      0.00000000	      1.96903832	      0.00000000
      7.53300000	      0.00000000	      0.00000000	      0.00000000	      0.00000000	      0.00000000	      0.00000000	      0.00000000	      0.00000000	      0.00000000	   -207.01141684	   1737.25622009	     29.83792655	      2.38168802	      0.00000000	      0.98411047	      0.00000000	      2.14637717	      0.00000000
      7.53400000	      0.00000000	      0.00000000	      0.00000000	      0.00000000	      0.00000000	      0.00000000	      0.00000000	      0.00000000	      0.00000000	   -202.95206639	   1745.10462296	     30.63925764	      2.37885961	      0.00000000	      0.98391273	      0.00000000	      2.31532933	      0.00000000
      7.53500000	      0.00000000	      0.00000000	      0.00000000	      0.00000000	      0.00000000	      0.00000000	      0.00000000	      0.00000000	      0.00000000	   -198.71270680	   1752.61317464	     31.41533025	      2.37600374	      0.00000000	      0.98372090	      0.00000000	      2.48008815	      0.00000000
